<?xml version="1.0" encoding="utf-8"?>
<!-- Generator: Adobe Illustrator 22.1.0, SVG Export Plug-In . SVG Version: 6.00 Build 0)  -->
<svg version="1.1" id="Layer_1" xmlns="http://www.w3.org/2000/svg" xmlns:xlink="http://www.w3.org/1999/xlink" x="0px" y="0px"
	 viewBox="0 0 500 500" style="enable-background:new 0 0 500 500;" xml:space="preserve">
<style type="text/css">
	.st0{fill:#730003;}
	.st1{fill:#FFFFFF;}
</style>
<g>
	<g>
		<path class="st0" d="M179.6,176.2c-41.4,0-75,33.6-75,75s33.6,75,75,75c41.4,0,75-33.6,75-75S221,176.2,179.6,176.2z M236.6,232.5
			c-0.2-0.3-0.4-0.6-0.6-0.9c-0.1-0.3-0.2-0.5-0.4-0.8c-0.9-1.3-3.3-2.1-3.9-2.2c-0.1,0-0.3,0-0.5-0.1c-2.4-0.4-3.1-0.4-3.4-0.5
			c-0.6,0-3-0.4-3.8-0.6c-0.9-0.5-1.9-0.5-2.6-0.5c-0.7,0-1.7,0.1-2.5,0.7c-0.3,0.2-0.9,0.5-1.6,0.9c0.5-0.9,0.8-2,0.8-2
			c0.3-1-0.1-1.9-0.8-2.9c-0.5-1.6-1-2.1-1.2-2.3c-0.5-0.5-2.4-2-2.8-2.3c-0.1-0.1-0.5-0.5-0.8-0.8c-1.6-1.6-1.9-1.8-2.6-2.1
			c-0.3-0.1-0.6-0.2-2.5-0.2c-2.5,0-3.2,0.2-3.8,0.5c-0.4,0.2-2,0.9-2.4,1c-0.1,0-0.4,0.1-0.8,0.1c-2.5,0.5-3.6,0.7-4.2,1
			c-0.6,0.1-2.4,0.3-4.4,0.5c-0.1-1.6-0.5-3.5-1.3-5c-0.2-0.4-0.5-0.7-0.8-1.1c0.4,0,0.9,0,1.4-0.1c0.7,0,1.5-0.1,1.7-0.1
			c0.2,0,0.4,0,1.3-0.1c1.6-0.1,4.6-0.4,6.5-0.4c0.2,0,0.4,0,0.6,0c0.4,0,1.2,0,2.2,0c5,0,16.1-0.2,17.5-0.4
			c0.9-0.1,2.1-0.5,3.1-1.1C229.6,217.2,233.9,224.4,236.6,232.5z M174.5,221.7c-0.4,0-0.9,0-1.5,0c-0.6,0-1.3,0-1.9,0
			c-1.5,0-2.3,0.1-3,0.4c-0.4,0.2-0.7,0.4-0.9,0.5c0,0-0.1,0-0.1,0.1c-0.1,0-0.3,0.1-0.8,0.1c-0.2,0-0.5,0-0.7,0
			c-0.9,0-1.9-0.1-2.6-0.2c-0.5-0.1-0.9-0.1-1.3-0.1c-0.3,0-0.6-0.1-0.9-0.1c-0.6-0.1-1.2-0.1-1.7-0.1c0.1-0.7,0.1-1.2,0.1-1.4
			c0-0.1,0-0.2,0.1-0.3c0.2-0.8,0.4-2-0.3-3c-0.3-0.4-0.6-0.7-1-0.9c-0.1-0.1-0.2-0.1-0.3-0.2c1.4-0.3,2.9-0.5,4-0.6
			c1.8-0.2,5.8-0.6,8.9-0.8c0.1,0.2,0.2,0.3,0.4,0.4c1,1,2.5,1,3.2,1c0,0,0.1,0,0.1,0c0,0,0.1,0,0.1,0.1c0.4,0.3,0.8,0.6,1.4,0.8
			c0.5,0.2,1.4,0.8,1.6,1.1c0.2,0.5,0.3,1.9,0.4,3.1C176.7,221.6,175.3,221.7,174.5,221.7z M177.4,232c0,0.5,0,0.9,0,1.4
			c-1.9,0.5-5.1,1.3-5.9,1.4l-0.3,0c-1.5,0.2-5,0.8-7.7,1.5c-0.7,0.2-1.4,0.4-2.1,0.6c-1.5,0.5-3.1,0.9-3.8,1c-0.4,0-1,0.1-1.6,0.2
			c0.4-2,0.7-4.9,0.7-5.7c0.1-0.6,0.6-2.8,1-4.2c0.6,0.6,1.3,1,1.7,1.3c1,0.6,7.8,4.1,10.4,4.1c1.6,0,2.6-0.6,3.2-1
			c0.1,0,0.2,0,0.4,0c0.3,0,0.7,0.1,1,0.1c0.8,0,1.5-0.2,2.1-0.5C176.7,232.1,177,232,177.4,232z M169.5,192.5
			c0.7,1.6,1.8,2.3,3.8,2.4c0.3,0.1,0.9,0.6,1.3,0.9c0.5,0.3,0.9,0.7,1.4,1c0,0.4,0.1,1,0.2,1.5c0.1,0.6,0.1,1.8,0.1,2.5
			c0,0.9,0,1.4,0.1,1.9c0.1,0.2,0.1,0.5,0.3,0.7c-0.3,0-0.6,0.1-0.9,0.1c-2.1,0.2-5,0.5-7.6,0.8c-4.2,0.6-13.9,1.6-17.8,1.9
			c-1,0.1-2,0.1-3.1,0.1c-1.2,0-2.2-0.1-3-0.1c-0.7,0-1.3-0.1-1.7,0c-0.4,0-1.5-0.3-2.1-0.5c8.1-6.9,18-11.8,28.9-13.7
			C169.5,192.3,169.5,192.5,169.5,192.5z M195.5,240.9l0.5-0.1c1.7-0.2,2.9-0.3,3.8-0.4c-0.1,0.4-0.3,0.8-0.4,1.3
			c-0.4,1.3-0.7,2.1-0.8,2.8c-1.7,0.3-4.2,0.8-5.5,1.1c-1.3,0.3-2.5,0.5-3.4,0.7c0-0.3,0-0.5,0-0.9c0-1,0.1-2.3,0.2-3.3
			c0-0.1,0-0.2,0-0.3C191.1,241.6,193.2,241.2,195.5,240.9z M190.2,230.1c0-0.1,0-0.3,0-0.4c0.1-0.1,0.3-0.1,0.7-0.2
			c1.2-0.3,6-1.1,8.3-1.5c0.6-0.1,1-0.2,1.3-0.2c0,0,0.2,0,0.4,0c0,0,0.1,0,0.1,0c0,0.9-0.1,1.9-0.1,2.2c0,0,0,0.1,0,0.1
			c-0.6,0.1-1.2,0.1-1.7,0.2c-0.6,0.1-1.1,0.1-1.6,0.2c-1,0.1-2.7,0.4-4.2,0.6c-1.1,0.2-2.3,0.4-2.8,0.4c-0.1,0-0.2,0-0.3,0
			c0-0.4-0.1-0.8-0.1-1C190.2,230.4,190.2,230.3,190.2,230.1z M191.9,193c-0.1-0.2-0.2-0.4-0.3-0.6c7.1,1.4,13.7,4.1,19.6,7.8
			c0,0-0.1,0-0.1,0.1c-0.1,0.1-0.2,0.1-0.3,0.2c-0.2,0-0.4,0-0.6,0c-0.6,0-1.1,0.1-1.6,0.3c-0.8,0.3-1.2,0.8-1.5,1.1
			c0,0,0,0-0.1,0.1c-0.1,0-0.2,0.1-0.5,0.1c-1.3-0.1-5.6-0.1-10.3-0.1c-2,0-4.7,0.2-6.8,0.4c0,0,0,0,0,0c0.4-0.3,0.9-0.8,1.1-1.5
			c0-0.1,0.1-0.5,0.2-1c0.2-0.6,0.5-2,0.7-2.4c0.1-0.3,0.4-0.9,0.7-2.7l0.2-0.9L191.9,193z M189.6,264c0.1-0.9,0.2-1.8,0.2-2.3
			c0-0.9,0-2.2,0-3.3c0-0.5,0-0.9,0-1.2c0-0.1,0-0.2,0-0.3c0.1,0,0.2-0.1,0.4-0.2c1.1-0.2,8.1-1.1,10.7-1.1c1,0.8,2.3,2.3,2.6,2.9
			c-0.1,0.3-0.5,1.1-2.1,2.8c-0.1,0.2-0.3,0.3-0.3,0.4c-0.5,0.5-4.4,4.2-5.5,5c-0.4,0.3-1,0.7-1.5,1.2c-0.3,0.3-0.8,0.7-1.2,1
			c-0.2-0.1-0.3-0.2-0.5-0.3c-0.6-0.4-1.3-0.8-1.8-1.1c-0.6-0.3-1-0.6-1.2-0.8C189.4,265.9,189.5,264.7,189.6,264z M135.9,210.2
			c0.3,0.5,0.8,1,1.4,1.4c0.4,0.4,1,0.9,1.3,1.3c0.6,0.9,1.8,2,4.4,4.3c0.7,0.6,1.6,1.4,2.1,1.8c0,0.1,0,0.2,0,0.2
			c-0.1,1.2-0.8,8-2,14.3c-1.3,6.6-6.5,24.7-7.8,28.8c-1,3.2-4.4,10-6.6,14.5c-0.6,1.1-1.1,2.2-1.5,3.1c-4.7-8.5-7.4-18.4-7.4-28.8
			C119.6,235.3,125.8,220.9,135.9,210.2z M133.6,289.7c0.5-0.7,1-1.5,1.4-2.3c0.2-0.1,0.5-0.2,0.8-0.4c1.2-0.8,1.4-1.9,1.5-2.4
			c0,0,0-0.1,0-0.1c0.2-0.4,0.8-1.6,1.5-2.5c0.6-0.8,4.3-5.7,5-7c0.4-0.7,3.3-7.8,3.6-9.7c0.1-0.6,1-2.9,2.4-6.3
			c0.3-0.7,0.4-1.5,0.5-2.6c0.1-0.9,0.2-1.8,0.4-2.6c0.4-1.4,2-4.6,2.5-5.5c0.3-0.5,0.4-1,0.6-1.7c0.6,0.3,1.3,0.5,2.1,0.7
			c0.3,0.1,0.6,0.2,0.7,0.2c0.7,0.3,1.6,0.6,2,0.7c0.2,0,0.3,0.1,0.5,0.1c0,0,0.1,0,0.2,0c0.4,0.3,1.1,0.6,2.1,0.6
			c0.4,0,0.8-0.1,1.1-0.1c0.1,0,0.2,0,0.3,0c0.6,0,2.1-0.2,2.7-2.1c0.4-0.2,1-0.4,1.4-0.5c0.4-0.1,0.7-0.3,1-0.4
			c0.9-0.2,4.6-0.7,6.1-0.9c0.9-0.1,1.4-0.2,1.6-0.2c0.3,0,0.8-0.1,1.4-0.3c0.2,0,0.5-0.1,0.8-0.2c0,0.1,0,0.3,0,0.4
			c0,0.9-0.1,2.4-0.2,3.5c-1.3,0.2-4.7,0.7-6.7,1.1c-4.2,0.9-9.2,1.8-10.2,1.8c-3.2,0.1-3.6,2.2-3.7,2.8c-0.1,1.4,0.8,2.6,2.2,2.9
			c0.1,0,0.1,0.1,0.2,0.1c0.5,0.2,1.2,0.5,2.2,0.8c0.5,0.1,1.6,0.4,2.6,0.7c1.9,0.5,3.1,0.9,3.8,1c1.4,0.2,2.7,0.2,5.3-0.1
			c1.1-0.1,2.9-0.2,4.3-0.2c0,0,0.1,0,0.1,0c0,0.3,0,0.6-0.1,0.9c-0.3,1.5-0.2,6.5-0.1,14c0,1.1,0,2.1,0,3.1c0,0.8,0,1.7,0,2.5
			c0,2.8,0.1,6.7-0.2,8.1c-0.1,0-0.3,0-0.6,0c-0.4,0-0.9,0-1.4-0.1c-0.5,0-1.1-0.1-1.6-0.1c-0.8,0-2.9-0.2-4.6-0.3
			c-1.9-0.2-3.1-0.3-3.6-0.3c-0.3,0-0.7,0-1.1,0.2c-1,0.4-1.7,1.3-1.8,2.4c-0.1,1.1,0.4,2.2,1.4,2.9c0.1,0.1,0.2,0.4,0.3,0.5
			c0.3,0.5,0.6,1,1.1,1.5c0.4,0.4,1,0.9,2,1.7c0.5,0.4,1.3,1,1.6,1.3c0.2,0.9,0.7,1.6,1.5,2c0.3,0.2,1,0.8,1.4,1.1
			c0.1,0.2,0.2,0.4,0.3,0.5c0.1,0.1,0.2,0.3,0.2,0.4c0.1,0.2,0.1,0.4,0.2,0.5c0.1,0.3,0.2,0.7,0.2,0.9c0.2,1.9,2,2.8,3.1,3.4
			c0,0,0,0,0.1,0c0,0,0,0,0,0c0.4,0.4,1.3,1.3,2.8,1.3c1,0,2.3-0.5,3.3-1.3c1.4-0.1,2.8-1,3.6-2.4c0.2-0.5,0.5-1.1,0.9-1.9
			c0.2-0.5,0.5-1.1,0.6-1.4c0.1-0.1,0.4-0.4,0.6-0.5c0.7-0.6,1.7-1.5,1.7-2.9c0-0.2,0.1-0.7,0.2-1c0.2-0.8,0.2-1.3,0.3-1.7
			c0-0.1,0-0.2,0.1-0.4c0.2-1.1,0.5-3.3,0.2-5.4c-0.1-1.1-0.1-6.1-0.1-10.9c0.2,0.2,0.5,0.4,0.7,0.6c1.3,1.1,6.3,6.2,9.6,9.6
			c2.1,2.1,3.3,3.4,3.7,3.7c0,0,3.7,3.4,5.7,4c1.2,0.4,4.4,0.9,6.3,0.9c0.5,0,1.2,0.2,1.9,0.4c-10.4,8.6-23.7,13.8-38.3,13.8
			C161.1,311.1,144.6,302.8,133.6,289.7z M227.3,287.5c-0.1,0-0.1,0-0.2,0c-0.1,0-0.2-0.1-0.4-0.1c-0.6-0.3-3.1-1.8-4.6-2.7
			c-2.3-1.4-2.9-1.8-3.2-1.9c-1.4-0.6-10.4-5-11.7-6c-1-0.7-3.7-2.1-6.2-3.3c1.1-0.4,2.3-1,3.5-1.6c2.8-1.5,4.2-2.8,4.8-3.5
			c1.3-0.4,2.3-0.8,2.9-1.7c0-0.1,0.1-0.2,0.2-0.2c1.4-0.7,2-1.1,2.3-1.3c0.4-0.2,1.4-0.6,1.9-0.7c0.1,0,0.3,0,0.5,0
			c0.3,0,0.6,0.1,0.9,0.1c2.8,0,3.7-4.1,3.7-4.3c0.2-1.1-0.1-1.9-0.5-2.5c0.1-0.9,0.1-2.2-1-3.1c-0.4-0.3-0.9-0.6-1.5-0.9
			c-0.2-0.1-0.5-0.2-0.6-0.3c-0.5-0.4-2.8-2.2-4.5-2.9c0-0.1,0-0.1,0-0.2c0.5-1.8-0.7-3.2-1.7-4c0.2-0.6,0.4-1.2,0.6-1.7
			c0.1-0.3,0.2-0.6,0.3-0.9c0.3-0.8,0.5-1.8,0.7-2.9c0.1-0.3,0.1-0.6,0.2-0.9c1.7,0,4.2-0.1,4.8-0.2c0.4-0.1,2.5-0.3,3.7-0.3
			c0.4,0,1.6,0.4,2.2,0.6c0.6,0.2,1.2,0.4,1.7,0.5c1.1,0.2,2.7,0.3,2.8,0.3l0.4,0l0.4-0.1c0.6-0.2,1.5-0.3,1.8-0.4
			c2-0.2,3.5-2.3,3.9-2.9c0.1-0.2,0.5-0.6,0.7-0.8c0.3-0.3,0.5-0.5,0.7-0.8c0.2-0.3,0.4-0.8,0.4-1.5c1.5,5.3,2.4,10.9,2.4,16.7
			C239.5,264.9,235,277.5,227.3,287.5z"/>
		<path class="st0" d="M156.8,267.9c1.2,0.7,2.9,0.8,4.2,1.2c2.3,0.6,4.1,1.3,5.8,1.3c1.5,0.1,4.8-1.1,5-2.1
			c0.3-1.1-0.6-2.8-3.4-4.5c-2.8-1.8-9.5-1.7-11.2-2.1c-1.6-0.4-5-2.5-5.4-2.5C149.9,259.5,153,265.7,156.8,267.9z"/>
		<path class="st0" d="M166.3,283.6c0.9-1.1,2-1.5,3.4-2.5c1.5-1.1,2.7-4.2,2.9-5c0.2-0.8,0.4-1.9,0.6-3c0.3-1.1,2.9-3.8,2.8-3.9
			c-0.4-0.2-1.7,0.1-2.6,1c-0.9,0.9-3.8,3.7-4.2,4.2c-0.4,0.5-5.7,4.7-9.3,6.7c-3.7,2.1-8,5.7-8.6,6c-0.6,0.3-1.6-0.8-2.5-1.3
			c-0.9-0.5-3.5-1.8-3.5-1.8s-0.6,1-0.9,2c-0.4,0.9-0.6,3.4-0.6,4c0,0.6,0.6,1.5,1.5,2.3c0.8,0.8,2,3.2,2.7,3.5
			c0.8,0.4,3.2,0.6,4,0.3c0.8-0.3,4-3.4,5.7-4.8c1.6-1.4,4-3.3,5.1-3.8C163.7,287.2,165.4,284.8,166.3,283.6z"/>
	</g>
	<g>
		<g>
			<path class="st1" d="M177.5,232.6c1.4-0.8,19.9-16.8,20.4-17.5c0.8-1.2,0.7-2.2-0.6-2.2h-1.4c-0.5,0-0.6-0.3-0.5-0.7l0.3-1.4
				c0.1-0.4,0.3-0.6,0.7-0.6c0.7,0,3.6,0.2,8.9,0.2c4.1,0,6.1-0.2,6.7-0.2c0.6,0,0.8,0.3,0.8,0.8l-0.3,1.2c-0.1,0.4-0.2,0.7-0.7,0.7
				h-2.1c-2.1,0-4,1-5.6,2.1c-1.3,0.9-16.9,13.3-18.6,14.5c4.6,11.6,13.4,29.4,19.7,36.4c2,2.3,5.4,6.8,10,6.8
				c2.6,0,5.2-2.5,4.7-4.7c-0.3-1.9,0.5-3.9,1.9-3.9c1.9-0.1,3,1,3,3.2c0,3.4-3.9,8.2-12,8.2c-7.6,0-13.8-3-19.5-10.7
				c-3.9-5.2-10.4-18.7-14.4-30.5l-2.3,1.5l-3.7,13.7c-0.8,3-0.5,4.5,1.7,4.5h1.7c0.3,0,0.6,0.2,0.5,0.7l-0.3,1.4
				c-0.1,0.3-0.3,0.6-0.9,0.6c-0.8,0-3.1-0.2-9.1-0.2c-6.3,0-8.4,0.2-8.9,0.2c-0.4,0-0.6-0.3-0.5-0.8l0.3-1.4
				c0.1-0.3,0.2-0.5,0.8-0.5h1.2c1.8,0,3.8-1.2,4.4-3.5l9.4-33.2c0.8-3,0.3-4.4-1.6-4.4h-1.7c-0.5,0-0.8-0.3-0.6-0.7l0.5-1.6
				c0.1-0.3,0.3-0.4,0.8-0.4c0.6,0,3.1,0.2,9.1,0.2s8-0.2,8.9-0.2c0.4,0,0.5,0.3,0.4,0.8l-0.2,1.3c-0.1,0.5-0.3,0.6-0.8,0.6h-1.7
				c-1.7,0-3.1,1-3.7,3.2L177.5,232.6z"/>
		</g>
		<g>
			<path class="st1" d="M236.6,251.8c0.8-3-0.1-3.2-2.3-3.2c-4.3,0-10,1.2-14.1,4c-3.9,2.6-8.8,6.4-8.8,10.7c0,2.8,2.2,4.1,3.9,4.1
				c1.1,0,1.9-0.9,2.3-1.6c0.9-1.4,1.9-2.1,3.8-2.1c1.9,0.1,3.2,1.4,3.2,3.4c0,3-2.7,5.2-6.6,5.2c-4.9,0-9.8-3.2-9.8-9.8
				c0-4.4,1.9-8.9,6.4-12.4c6.5-5,16.3-4.7,30.3-4.7c5.2,0,11.7-0.4,16.7,3.2c2.8,2.1,4.5,5.2,4.5,9.1c0,6.6-5.6,14.9-17.5,14.9
				c-1.9,0-6,0-8.3-0.8l-3.3,12.2c-0.6,2.4-1.1,4.9,2.3,4.9h2.6c0.5,0,0.6,0.3,0.5,0.7l-0.2,1.4c-0.1,0.4-0.2,0.6-0.8,0.6
				c-0.8,0-3.6-0.2-12.6-0.2c-4.7,0-7.2,0.2-8.1,0.2c-0.4,0-0.6-0.2-0.5-0.7l0.1-1.3c0.1-0.4,0.3-0.7,0.8-0.7h1.4
				c3.6,0,4.3-2.1,5.2-5.4L236.6,251.8z M241.1,268.1c-0.4,1.4,2.2,2.1,5.1,2.1c10.3,0,11.3-11.1,11.3-12.6c0-5.1-3.6-9.5-8.6-9.5
				c-1.2,0-2,0-2.4,1L241.1,268.1z"/>
		</g>
		<g>
			<path class="st1" d="M239.2,210.6c0.5,0,0.7,0.3,0.6,0.8c-1,3-4.3,12-4.9,14.3c-0.3,1.2-2.7,8.9-2.7,9.9c0,0.5,0.3,0.8,0.8,0.8
				c1.1,0,3.3-3.2,3.9-3.9c0.3-0.4,0.5-0.4,0.7-0.3l0.8,0.6c0.2,0.1,0.1,0.4-0.1,0.9c-0.7,1.4-4.5,7.2-10.9,7.2
				c-2.1,0-2.8-1.1-2.8-2.2c0-0.9,0.3-2.1,2.7-8.9l-0.6-0.3c-2.7,4.1-7.2,11.5-13.7,11.5c-1.9,0-4.7-2.6-4.7-5.4
				c0-8.7,8.5-24.7,18.4-24.7c3.1,0,4.5,1.3,5.4,2.4l1.1-2c0.3-0.6,0.8-0.8,1.2-0.8H239.2z M218,235.4c1.9,0,8.3-9,9.6-11.8
				c0.8-1.9,1.6-4.2,1.6-6.6c0-1.5-1.7-3.1-3-3.1c-1.7,0-3.4,1.4-5.2,4.7c-3.4,6.1-4.6,11.4-4.6,14.8
				C216.4,234.8,216.9,235.4,218,235.4z"/>
			<path class="st1" d="M242.2,240.3c-0.5,0-0.8-0.3-0.6-0.8l4.7-13.2c1.6-4.3,3.1-8.9,3.1-9.7c0-0.7-0.3-1.1-0.9-1.1
				c-1,0-3.7,2.7-4.6,3.7c-0.2,0.2-0.5,0.3-0.7,0.1l-0.7-0.8c-0.3-0.2-0.3-0.4-0.1-0.7c1-1.4,5.4-6.9,12.5-6.9
				c2.1,0,2.8,1.6,2.8,2.7c0,1-1.4,4.7-3.3,8.9l0.6,0.5c2.1-3,7.8-12.1,14.6-12.1c3,0,4.4,2.7,4.4,4.6c0,1.5-1,4.4-4,12.9
				c-1.7,4.7-2.2,6.2-2.2,7s0.3,1.2,0.9,1.2c0.8,0,3.1-2.1,3.8-3c0.2-0.3,0.5-0.2,0.7,0l0.6,0.6c0.3,0.2,0.3,0.6,0.1,0.8
				c-0.8,1.1-5,6-11.6,6c-2.1,0-2.8-1.2-2.8-2.6c0-1.2,1.4-5.4,3.6-11.4c1.1-3.2,2.8-7.8,2.8-9c0-1.1-0.5-1.5-1.4-1.5
				c-1.6,0-6.7,5.5-9.4,10c-1.5,2.4-3,4.6-3.4,5.8l-2.7,7.7c-0.1,0.3-0.3,0.4-1,0.4H242.2z"/>
			<path class="st1" d="M268.5,252.1c0-2.3,0.3-3.4,2.7-5.3c2.8-2.3,6.6-3.7,8.8-4.6c-2.1-1.5-2.7-2.7-2.7-4.3
				c0-1.6,2.5-3.6,6.2-5.2v-0.1c-4.1-2.1-5.8-3.8-5.8-8.8c0-5,5-12.9,14.6-12.9c4.7,0,6.8,2.2,7.5,3.2c1.4-1.1,3.6-2.5,5.7-2.5
				c2.2,0,3.2,1.7,3.2,3.2c-0.1,1.8-1.2,3-2.9,3c-0.8,0-1.7-0.5-2.2-1c-0.3-0.3-0.7-0.8-1.2-0.8c-0.5,0-1.2,0.3-1.5,0.6
				c0.3,0.8,0.4,2.1,0.4,3.6c0,3.2-3.9,11.6-11.8,12.6c-1.6,0.2-2.9,0.3-3.1,0.4c-1.4,0.6-2.3,1.9-2.3,2.9c0,0.8,1.1,1.7,1.7,2
				c1.4,0.8,4.9,2.5,9.9,5.3c4.2,2.3,5.4,4.9,5.4,7c0,2.4-0.9,5.5-5.4,7.8c-3,1.5-6.1,2.5-11.7,2.5
				C275.1,260.7,268.5,256.7,268.5,252.1z M292.9,253.2c0-2.9-1.1-3.7-5-6c-0.8-0.4-5.1-2.8-6.3-3.6c-2.8,1.7-5.2,3.7-5.2,7.4
				c0,5,4.1,7.2,9.6,7.2C288.8,258.1,292.9,256.7,292.9,253.2z M287.4,230.6c3.5,0,6.3-7.6,6.3-12.9c0-2.8,0-4.3-1.9-4.3
				c-1.5,0-2.4,0.8-3.7,3.2c-3,5.4-2.8,6.9-2.8,10.8C285.3,229.7,285.9,230.6,287.4,230.6z"/>
		</g>
		<g>
			<g>
				<path class="st1" d="M295.7,262.9c0.5,0,0.7,0.3,0.6,0.8c-1,3-4.3,12-4.9,14.3c-0.3,1.2-2.7,8.9-2.7,9.9c0,0.5,0.3,0.8,0.8,0.8
					c1.1,0,3.3-3.2,3.9-3.9c0.3-0.4,0.5-0.4,0.7-0.3l0.8,0.6c0.2,0.1,0.1,0.4-0.1,0.9c-0.7,1.4-4.5,7.2-10.9,7.2
					c-2.1,0-2.8-1.1-2.8-2.2c0-0.9,0.3-2.1,2.7-8.9l-0.6-0.3c-2.7,4.1-7.2,11.5-13.7,11.5c-1.9,0-4.7-2.6-4.7-5.4
					c0-8.7,8.5-24.7,18.4-24.7c3.1,0,4.5,1.3,5.4,2.4l1.1-2c0.3-0.6,0.8-0.8,1.2-0.8H295.7z M274.6,287.8c1.9,0,8.3-9,9.6-11.8
					c0.8-1.9,1.6-4.2,1.6-6.6c0-1.5-1.7-3.1-3-3.1c-1.7,0-3.4,1.4-5.2,4.7c-3.4,6.1-4.6,11.4-4.6,14.8
					C272.9,287.2,273.5,287.8,274.6,287.8z"/>
				<path class="st1" d="M319.4,246c0.6,0,0.8,0.4,0.5,1.2l-13.8,38.6c-0.7,1.9-0.6,3,0.7,3c1.7,0,4.1-2.5,5-3.4
					c0.2-0.2,0.4-0.2,0.6,0l0.8,0.8c0.1,0.2,0.2,0.4,0,0.8c-0.3,0.5-5.6,6.3-12.9,6.3c-1.4,0-3-1.7-3-2.9c0-1.2,1.2-4.5,1.9-6.4
					l10.8-31.2c0.9-2.6,0.7-4.3-1.3-4.3h-2c-0.5,0-0.6-0.3-0.6-0.6l0.4-1.4c0.1-0.4,0.3-0.5,0.7-0.5H319.4z"/>
				<path class="st1" d="M346.3,262.9c0.5,0,0.7,0.3,0.6,0.8c-1,3-4.3,12-4.9,14.3c-0.3,1.2-2.7,8.9-2.7,9.9c0,0.5,0.3,0.8,0.8,0.8
					c1.1,0,3.3-3.2,3.9-3.9c0.3-0.4,0.5-0.4,0.7-0.3l0.8,0.6c0.2,0.1,0.1,0.4-0.1,0.9c-0.7,1.4-4.5,7.2-10.9,7.2
					c-2.1,0-2.8-1.1-2.8-2.2c0-0.9,0.3-2.1,2.7-8.9l-0.6-0.3c-2.7,4.1-7.2,11.5-13.7,11.5c-1.9,0-4.7-2.6-4.7-5.4
					c0-8.7,8.5-24.7,18.4-24.7c3.1,0,4.5,1.3,5.4,2.4l1.1-2c0.3-0.6,0.8-0.8,1.2-0.8H346.3z M325.2,287.8c1.9,0,8.3-9,9.6-11.8
					c0.8-1.9,1.6-4.2,1.6-6.6c0-1.5-1.7-3.1-3-3.1c-1.7,0-3.4,1.4-5.2,4.7c-3.4,6.1-4.6,11.4-4.6,14.8
					C323.6,287.2,324.1,287.8,325.2,287.8z"/>
				<path class="st1" d="M367.3,286.7c0.2,0.1,0.3,0.3,0.1,0.8c-1,1.4-5.4,5.9-11.3,5.9c-3,0-6.9-2.4-6.9-7.6
					c0-8.3,7.2-22.4,17.2-22.4c4.1,0,5.4,2.5,5.4,3.8c0,2.1-1.7,4-3.1,4s-2.3-0.5-2.8-1.8c-0.3-1.2-1-2.2-2.2-2.2
					c-1.2,0-2.1,1.7-3.3,4.6c-1.7,4.2-2.8,6.7-2.8,12.7c0,2.1,0.3,4.3,2.6,4.3c2.1,0,4.7-1.5,5.6-2.5c0.2-0.3,0.4-0.4,0.6-0.3
					L367.3,286.7z"/>
				<path class="st1" d="M392.9,285.8c0.3,0.2,0.3,0.4,0.1,0.7c-1.2,2.5-6.4,6.9-13.1,6.9c-4.7,0-8-2.8-8-7.7
					c0-5.1,2.2-12.4,8.3-17.5c3.4-2.9,7.4-4.8,11.5-4.8c3.8,0,5.4,2.1,5.4,4.7c0,3.9-2.3,6.7-6.3,8.9c-3.8,2.1-7.5,2.8-10.1,3
					c-0.3,0.6-0.6,2.4-0.6,4.3c0,2.4,1.4,4.5,3.7,4.5c3.4,0,5.8-1.9,7.4-3.6c0.1-0.2,0.3-0.3,0.5-0.2L392.9,285.8z M387.5,274.7
					c1.1-1,2.2-3.4,2.2-5.6c0-1.1-0.3-2.3-1.9-2.3c-2.6,0-5.6,6.3-6.6,10.7C382.4,277.5,385.5,276.6,387.5,274.7z"/>
			</g>
		</g>
	</g>
</g>
</svg>
